<svg id="Layer_1" data-name="Layer 1" xmlns="http://www.w3.org/2000/svg" viewBox="0 0 1200 1200"><defs><style>.cls-1{fill:#e9e8e8;}.cls-2{fill:#9dd5c0;}.cls-3{fill:#1d252e;}.cls-4,.cls-8{fill:none;}.cls-4,.cls-5,.cls-6{stroke:#1d252e;stroke-linecap:round;stroke-linejoin:round;}.cls-4,.cls-5{stroke-width:3px;}.cls-5,.cls-6,.cls-7{fill:#fff;}.cls-6{stroke-width:2.74px;}</style></defs><path id="Path-141" class="cls-1" d="M441.86,467.29c110.69-74.84,365-274.08,498.13-158.15s60.26,672.6-332,612.66c-147.36-22.52-370-34.95-401.22-104C154.88,702.94,372.75,514,441.86,467.29Z"/><path class="cls-2" d="M779.56,310v276.1a23.16,23.16,0,0,1-23.2,23.2H274.68a23.19,23.19,0,0,1-23.2-23.2V310a23.2,23.2,0,0,1,23.2-23.2H756.36A23.19,23.19,0,0,1,779.56,310Z"/><path class="cls-3" d="M779.55,577v9.11a23.16,23.16,0,0,1-23.2,23.2H274.67a23.19,23.19,0,0,1-23.2-23.2V577h20.19v17.68H759.38V577Z"/><path class="cls-4" d="M265.85,577.93V309.83a10.54,10.54,0,0,1,10.53-10.53H756.13a10.53,10.53,0,0,1,10.53,10.53v268.1"/><path class="cls-5" d="M405.53,421.45a4.71,4.71,0,0,1-1.48,2.07,3.2,3.2,0,0,1-1.9.66,3.13,3.13,0,0,1-2.14-.91,3.91,3.91,0,0,1-1.15-2.64,71,71,0,0,1,1.89-10.56,96.13,96.13,0,0,1,3.47-10.88A85.18,85.18,0,0,1,409,388.84a68.34,68.34,0,0,1,5.77-8.95H391.19a4.12,4.12,0,0,1-2.68-1.23,3.2,3.2,0,0,1-.87-2.15,3.27,3.27,0,0,1,.95-2.26,3.93,3.93,0,0,1,2.84-1.12h30.76q2.9.75,2.89,3.3a5.27,5.27,0,0,1-.41,1.81c-.78.94-1.53,1.86-2.27,2.77s-1.47,1.85-2.19,2.84a91.72,91.72,0,0,0-5.27,8.58,89.16,89.16,0,0,0-4.42,9.32,76.44,76.44,0,0,0-3.21,9.77A65.79,65.79,0,0,0,405.53,421.45Z"/><path class="cls-5" d="M432.37,407.35a3.21,3.21,0,0,1-.86-2.14,3.27,3.27,0,0,1,.95-2.27,3.92,3.92,0,0,1,2.84-1.11h9.15V389.71a4.93,4.93,0,0,1,1.32-2.48,3,3,0,0,1,2.07-.82,3.27,3.27,0,0,1,2,.74,4.24,4.24,0,0,1,1.36,2.31v12.37h11a4.11,4.11,0,0,1,2.31,1.36,3.21,3.21,0,0,1,.75,2,3,3,0,0,1-.83,2.06,4.75,4.75,0,0,1-2.47,1.32H451.22V421a3.91,3.91,0,0,1-1.12,2.84,3.14,3.14,0,0,1-4.41.09,4.2,4.2,0,0,1-1.24-2.68V408.59h-9.4A4.15,4.15,0,0,1,432.37,407.35Z"/><path class="cls-5" d="M476.53,417.25a4.33,4.33,0,0,1-.91-2.56,3,3,0,0,1,.91-2.27,3.25,3.25,0,0,1,2.31-.86,4,4,0,0,1,2.23.78c.77.53,1.56,1.09,2.39,1.69a25.77,25.77,0,0,0,2.6,1.69,5.67,5.67,0,0,0,2.92.79,8.35,8.35,0,0,0,4-.95,9,9,0,0,0,3-2.52,11.42,11.42,0,0,0,1.82-3.54,13.56,13.56,0,0,0,.61-4,4.76,4.76,0,0,0-1.44-3.55,10.69,10.69,0,0,0-3.55-2.23,20.26,20.26,0,0,0-4.32-1.15,27,27,0,0,0-3.88-.33,4.19,4.19,0,0,1-2.31-1.36,3.25,3.25,0,0,1-.74-2,3,3,0,0,1,.82-2,4.68,4.68,0,0,1,2.48-1.36,28.19,28.19,0,0,0,3.13-.54,22.6,22.6,0,0,0,3.22-1,12.36,12.36,0,0,0,2.84-1.56,6.27,6.27,0,0,0,1.94-2.35l.08-2.07-.33-1.73a2.49,2.49,0,0,0-.82-1.48,4.76,4.76,0,0,0-1.61-.91,9.29,9.29,0,0,0-2-.45,18.67,18.67,0,0,0-2.06-.13,25.06,25.06,0,0,0-4.13.38,11.08,11.08,0,0,0-3.29.94c-.61.44-1.16.82-1.65,1.12a3.15,3.15,0,0,1-1.65.45,3,3,0,0,1-2.27-1,4.31,4.31,0,0,1-.95-3,4,4,0,0,1,1.4-2.39,8.78,8.78,0,0,1,2.77-1.57,23.23,23.23,0,0,1,3.38-.91c1.18-.21,2.24-.38,3.17-.49a19.74,19.74,0,0,1,2.19-.16h.45a20.78,20.78,0,0,1,5.53.7,13.25,13.25,0,0,1,4.49,2.14,10.19,10.19,0,0,1,3.05,3.67,11.68,11.68,0,0,1,1.11,5.28c0,.38,0,1-.08,1.73a9.1,9.1,0,0,1-.58,2.51,10.68,10.68,0,0,1-1.69,2.89,14.26,14.26,0,0,1-3.42,3,19,19,0,0,1,2.93,2,15.37,15.37,0,0,1,2.56,2.72,13.52,13.52,0,0,1,1.77,3.34,11.25,11.25,0,0,1,.66,3.88,14.32,14.32,0,0,1-1.44,6.18,19.9,19.9,0,0,1-3.72,5.4,18.94,18.94,0,0,1-5.15,3.8,12.82,12.82,0,0,1-5.77,1.44,13.88,13.88,0,0,1-6.93-1.82A38,38,0,0,1,476.53,417.25Z"/><path class="cls-5" d="M545.63,397.62a3.33,3.33,0,0,1-1.32,3,5.79,5.79,0,0,1-3.38.91H519.16a6,6,0,0,1-3.42-.91,3.29,3.29,0,0,1-1.36-3,2.71,2.71,0,0,1,.74-1.73c.61-.93,2-1.4,4-1.4h21.77c2,0,3.27.47,3.88,1.4A4.74,4.74,0,0,1,545.63,397.62Zm.17,13.2c.11,1.81-.31,3.06-1.24,3.75a5.8,5.8,0,0,1-3.54,1H519.08a5.58,5.58,0,0,1-3.46-1,3,3,0,0,1-1.24-2.55,3,3,0,0,1,1.36-2.56,5.72,5.72,0,0,1,3.34-1H541Q545.06,408.59,545.8,410.82Z"/><path class="cls-6" d="M581.72,405.83a4.33,4.33,0,0,1,2.73,1.9,3.55,3.55,0,0,1,.51,2.64,3.68,3.68,0,0,1-1.53,2.22,4.36,4.36,0,0,1-3.29.65,9.83,9.83,0,0,1-4.63-2.18,9.59,9.59,0,0,1-2.69-3.75,9,9,0,0,1-.46-4.63,10.51,10.51,0,0,1,2.13-4.82,17.42,17.42,0,0,1,3-3q1.9-1.53,3.85-3.06t3.61-3.1a9.66,9.66,0,0,0,2.37-3.29,5,5,0,0,0,.09-3.52,8.44,8.44,0,0,0-3.29-3.76l-.56-.18c-.18-.06-.4-.13-.65-.19a14.27,14.27,0,0,0-7.32,2.41,23.71,23.71,0,0,0-5.74,5.38A4.44,4.44,0,0,1,567,387.3a3.64,3.64,0,0,1-2.64-.61,3.58,3.58,0,0,1-1.43-2.31,4.38,4.38,0,0,1,.78-3.29,32.29,32.29,0,0,1,4.41-4.63,26.32,26.32,0,0,1,5.46-3.71,24.19,24.19,0,0,1,6-2.13,13.87,13.87,0,0,1,5.84-.05,11.56,11.56,0,0,1,5.14,2.64,15.29,15.29,0,0,1,3.94,5.93,10.53,10.53,0,0,1,.83,4.82,14,14,0,0,1-1.11,4.45,15.35,15.35,0,0,1-2.5,3.94,29,29,0,0,1-3.52,3.38,26.28,26.28,0,0,1-2.27,1.62,24.44,24.44,0,0,0-3.11,2.41,12.43,12.43,0,0,0-2.36,2.78,2.8,2.8,0,0,0-.23,2.82c.12.13.21.19.27.19a1.11,1.11,0,0,0,.61.18A2,2,0,0,1,581.72,405.83Zm-7.78,16.86a5.07,5.07,0,0,1,5.09-5.1,5.08,5.08,0,0,1,3.66,1.49,4.84,4.84,0,0,1,1.53,3.61,5.22,5.22,0,0,1-5.19,5.19,4.84,4.84,0,0,1-3.61-1.53A5.07,5.07,0,0,1,573.94,422.69Z"/><rect class="cls-5" x="294.91" y="588.62" width="31" height="7.02"/><polygon class="cls-5" points="381.19 588.71 351.05 588.62 351.05 595.64 382.06 595.64 382.49 593.92 380.32 592.07 381.19 588.71"/><path id="Path-94-4" class="cls-7" d="M834,717l-4.91,159.82L781,911.09a1.32,1.32,0,0,0-.47,1.71,1,1,0,0,0,.91.44c40.26-2.63,72.35-4.28,75.28-5.6s10.13-187.21,10.13-187.21"/><path id="Path-94-4-2" data-name="Path-94-4" class="cls-4" d="M859.19,883.76c3.18-49.17,7.21-157.12,7.21-157.12"/><path id="Path-94-4-3" data-name="Path-94-4" class="cls-4" d="M833.76,724.63l-4.67,152.14L781,911.09a1.32,1.32,0,0,0-.47,1.71,1,1,0,0,0,.91.44C800,912,816.8,911,829.83,910.17"/><path id="Path-94-4-4" data-name="Path-94-4" class="cls-7" d="M878.91,722.16l.26,33.14,5.28,121.47-47,34.32a1.29,1.29,0,0,0-.42,1.71,1,1,0,0,0,.92.44c40.18-2.63,67.92-5.09,70.81-6.41S911.4,717,911.4,717"/><path id="Path-94-4-5" data-name="Path-94-4" class="cls-4" d="M878.57,727.4l.6,27.9,5.28,121.47-47,34.32a1.29,1.29,0,0,0-.42,1.71,1,1,0,0,0,.92.44c40.18-2.63,67.92-5.09,70.81-6.41s2.4-181.54,2.4-181.54"/><path id="Path-102" class="cls-3" d="M843.68,396.18q-3-10.44,1-16.41c4-6,13.77-13.74,28.06-12s25.54,14.43,28.67,28.46q3.12,14-2.45,30.11-3.75,5.25-7.92,5.3c-4.18,0-12.66-2-15.51-5Q872.68,423.65,843.68,396.18Z"/><path id="Path-103" class="cls-7" d="M845.51,396.16l-3.73,10.36,1.4,12,6.13,8.64,6.61,4,.42,21.21-16,.78,7,13.72c10,5.19,21.61,6,34,4.49l18.91-18.21L875.84,452l-1.38-21.1,6.11-8.24,2.83-7.82,5.26-.65,1.51-8.3-3.8-4.17-7-1.4-4.54-7.57.84-6.41L857,396Z"/><path id="Path-86" class="cls-4" d="M845.51,396.16a28.13,28.13,0,0,0-3,20.26q2.37,10.57,14.08,14.69l-.29,21.26-9.46.46"/><path id="Path-87" class="cls-4" d="M845.88,395.41q2.63,1.79,10.3-.13t19.53-8.91a12.52,12.52,0,0,0,.11,8.66,11.91,11.91,0,0,0,5.16,6.4q6.54-1.76,8.41,3.33c1.87,5.09.19,9.32-1.52,10.05a7.11,7.11,0,0,1-4.47.06q.15,3.92-3.51,9.06t-5.43,5.61l1.12,23,13.87.53"/><path id="Path-98" class="cls-4" d="M854.49,430.24a13.56,13.56,0,0,0,5,1.6,22.11,22.11,0,0,0,7.78-.42"/><path id="Path-104" class="cls-4" d="M890.05,433.83a7.13,7.13,0,0,0,4.07-.05q2.43-.63,5.36-4.11"/><path id="Path-105" class="cls-3" d="M890.55,436.49q1.55.75,5.31-.07a9.13,9.13,0,0,0,6-4.9q3.14,0,6.28,6c3.16,6,1.34,13.68,3.91,17.67a24.36,24.36,0,0,0,8.15,7.35Q902,465,895.6,454.75T890.55,436.49Z"/><path id="Path-89" class="cls-3" d="M834.12,598.85Q821.25,661.33,817.94,687t-3.37,31.79q78,7.31,96.6,4.38t31.18-11.12q-14.94-90.67-25-113.21T834.12,598.85Z"/><path id="Path-93" class="cls-7" d="M807.73,530.16q-19.68,15.39-26.26,12c-4.4-2.29-38.6-57.32-38.6-57.32s-6.36-4-6.86-6.5-2.73-19.6-2.28-21.57c.68-3,15,6.54,18.06,10.22q3,3.68,5.91,15.18l27.35,28.61,7.7-3.95"/><path id="Path-93-2" data-name="Path-93" class="cls-4" d="M800.06,535.78q-13.38,9-18.59,6.34c-4.4-2.29-38.6-57.32-38.6-57.32s-6.36-4-6.86-6.5-2.73-19.6-2.28-21.57c.68-3,15,6.54,18.06,10.22q3,3.68,5.91,15.18l27.35,28.61"/><path id="Path-88" class="cls-2" d="M842.39,451.15l22,19.12,31.28-18s23.54,1.11,30.61,8.66,13,23-9.54,64.23c0,34.47,1.88,74,1.88,74l-87,2c.77-13.72,5.52-70.22,5.52-70.22s-2.23-15.35-3.9-16.26l-25.5,21.54-18.42-32C810.93,471.83,842.39,451.15,842.39,451.15Z"/><path id="Path-93-3" data-name="Path-93" class="cls-7" d="M940.93,520.59c5.77,15.62,6.3,24.65,3.39,28.66s-39.07,58.61-39.07,58.61-1.57,7.37-3.71,8.7-17.43,9.37-19.43,9.63c-3,.4.91-16.35,3.31-20.48q2.39-4.14,12.18-10.82l16.22-53.82-2.06-13.68"/><path id="Path-93-4" data-name="Path-93" class="cls-4" d="M943.17,550.91c-6.88,10.08-37.92,57-37.92,57s-1.57,7.37-3.71,8.7-17.43,9.37-19.43,9.63c-3,.4.91-16.35,3.31-20.48q2.39-4.14,12.18-10.82L911.74,548"/><path id="Path-88-2" data-name="Path-88" class="cls-2" d="M948.53,539.27,912,541.6c-9.29-34.13-13.87-54-14.17-60s2.17-23.13,15.46-24.92,19.41,14.42,21.32,20.4S948.53,539.27,948.53,539.27Z"/><path id="Path-88-3" data-name="Path-88" class="cls-4" d="M919.76,516.55l-10-15.23"/><path class="cls-4" d="M835.53,494.94c-4.15,6.45-5.07,17.5.46,28.1"/><path class="cls-4" d="M894.57,534.24c6.23-1.3,10-5.36,11.85-11.69"/><path class="cls-2" d="M834.75,446.79l29.58,23.92s-8.77-18-12.57-21.95S834.75,446.79,834.75,446.79Z"/><path class="cls-2" d="M902.12,448.47l-38.77,23.21s16.47-17.35,21.26-21.25S902.12,448.47,902.12,448.47Z"/><path class="cls-3" d="M751.83,492.7,698.42,375a1.5,1.5,0,0,1,2.72-1.28L757.36,490.1a3.06,3.06,0,1,1-5.5,2.67Z"/><path class="cls-7" d="M753.12,474l-1.33-7a68.3,68.3,0,0,1-7.33-5.28c-3.19-2.74-4.1.45-3.42,5.24,0,0,1.37,5.24,5.47,7.29s3.88,7.29,8.66,7.75"/><path class="cls-4" d="M755.33,473.8,751.79,467a68.3,68.3,0,0,1-7.33-5.28c-3.19-2.74-4.1.45-3.42,5.24,0,0,1.37,5.24,5.47,7.29s3.88,7.29,8.66,7.75"/><circle class="cls-5" cx="844.84" cy="405.11" r="7.77"/><circle class="cls-5" cx="865.82" cy="405.11" r="7.77"/><line class="cls-5" x1="873.34" y1="402.15" x2="880.98" y2="402.15"/><line class="cls-5" x1="852.61" y1="405.11" x2="858.05" y2="405.11"/><rect class="cls-8" width="1200" height="1200"/></svg>